<?xml version="1.0" encoding="UTF-8" standalone="no"?>
<!DOCTYPE svg PUBLIC "-//W3C//DTD SVG 1.1//EN" "http://www.w3.org/Graphics/SVG/1.1/DTD/svg11.dtd">
<svg width="100%" height="100%" viewBox="0 0 10000 5440" version="1.1" xmlns="http://www.w3.org/2000/svg" xmlns:xlink="http://www.w3.org/1999/xlink" xml:space="preserve" xmlns:serif="http://www.serif.com/" style="fill-rule:evenodd;clip-rule:evenodd;stroke-linecap:round;stroke-linejoin:round;stroke-miterlimit:1.5;">
    <g id="Plan-de-travail1" serif:id="Plan de travail1" transform="matrix(11.73979,0,0,17.24291,0,0)">
        <rect x="0" y="0" width="851" height="315" style="fill:none;"/>
        <g transform="matrix(0.851804,0,0,0.579948,0,0)">
            <path d="M166.593,116.389C235.702,124.744 438.968,169.307 502.242,175.417C518.618,176.998 545.616,184.737 546.237,153.048C546.858,121.36 566.12,111.418 574.819,106.447C583.518,101.476 732.642,53.633 743.205,52.39C753.768,51.147 775.515,63.574 775.515,86.564C775.515,109.554 768.68,146.835 771.166,163.611C773.651,180.388 786.699,195.3 808.446,191.572C830.194,187.844 901.791,159.516 910.49,157.652C919.189,155.788 928.06,181.458 929.302,211.283C930.545,241.108 654.276,430.964 595.146,460.079C523.938,495.141 481.709,520.817 417.089,460.546C352.469,400.275 349.269,440.733 325.658,456.888C302.047,473.043 243.64,408.423 226.242,397.239C208.844,386.054 139.253,379.22 126.205,369.899C113.157,360.579 87.681,286.431 130.554,272.244C173.428,258.056 272.285,352.715 342.841,339.897C380.589,333.039 357.999,267.719 344.34,246.788C302.563,182.763 88.303,205.863 84.575,172.932C80.846,140 87.067,106.775 166.593,116.389Z" style="fill:none;stroke:rgb(255,250,26);stroke-width:12.12px;"/>
        </g>
    </g>
</svg>
